<svg width="35" height="37" viewBox="0 0 35 37" fill="none" xmlns="http://www.w3.org/2000/svg">
<g filter="url(#filter0_i_11_19)">
<path d="M4.75 18.5H30M4.75 18.5L3.375 9.75M4.75 18.5L6.125 27.25M30 18.5L31.5 9.75M30 18.5L28.5 27.25M3.375 9.75L2 1H33L31.5 9.75M3.375 9.75H7.5M31.5 9.75H27.625M28.5 27.25L27 36H24.25M28.5 27.25H6.125M6.125 27.25L7.5 36H10.5M7.5 9.75L10.5 36M7.5 9.75H12.5M10.5 36H12.5M12.5 9.75V36M12.5 9.75H16M12.5 36H16M16 36V9.75M16 36H18.75M16 9.75H19.875M23.75 9.75L21.5 36M23.75 9.75H27.625M23.75 9.75H19.875M21.5 36H24.25M21.5 36H18.75M27.625 9.75L24.25 36M19.875 9.75L18.75 36" stroke="black" stroke-opacity="0.25" stroke-width="2"/>
</g>
<defs>
<filter id="filter0_i_11_19" x="0.830597" y="0" width="33.3554" height="37" filterUnits="userSpaceOnUse" color-interpolation-filters="sRGB">
<feFlood flood-opacity="0" result="BackgroundImageFix"/>
<feBlend mode="normal" in="SourceGraphic" in2="BackgroundImageFix" result="shape"/>
<feColorMatrix in="SourceAlpha" type="matrix" values="0 0 0 0 0 0 0 0 0 0 0 0 0 0 0 0 0 0 127 0" result="hardAlpha"/>
<feOffset dx="37" dy="75"/>
<feGaussianBlur stdDeviation="1.5"/>
<feComposite in2="hardAlpha" operator="arithmetic" k2="-1" k3="1"/>
<feColorMatrix type="matrix" values="0 0 0 0 0 0 0 0 0 0 0 0 0 0 0 0 0 0 0.45 0"/>
<feBlend mode="difference" in2="shape" result="effect1_innerShadow_11_19"/>
</filter>
</defs>
</svg>
